<svg width="24" height="24" viewBox="0 0 24 24" fill="none" xmlns="http://www.w3.org/2000/svg">
<path d="M20.16 5.00001C19.1 3.93722 17.6948 3.28855 16.1984 3.17118C14.7019 3.05381 13.2128 3.47548 12 4.36001C10.7277 3.41365 9.14402 2.98452 7.56795 3.15905C5.99188 3.33358 4.54047 4.09879 3.506 5.3006C2.47154 6.5024 1.93085 8.05153 1.99283 9.63603C2.05481 11.2205 2.71485 12.7227 3.84003 13.84L10.05 20.06C10.57 20.5718 11.2704 20.8586 12 20.8586C12.7296 20.8586 13.43 20.5718 13.95 20.06L20.16 13.84C21.3276 12.6653 21.983 11.0763 21.983 9.42001C21.983 7.76374 21.3276 6.17475 20.16 5.00001ZM18.75 12.46L12.54 18.67C12.4694 18.7414 12.3853 18.798 12.2926 18.8367C12.1999 18.8753 12.1005 18.8952 12 18.8952C11.8996 18.8952 11.8002 18.8753 11.7075 18.8367C11.6148 18.798 11.5307 18.7414 11.46 18.67L5.25003 12.43C4.46579 11.6284 4.02664 10.5515 4.02664 9.43001C4.02664 8.30855 4.46579 7.23167 5.25003 6.43001C6.04919 5.641 7.127 5.19858 8.25003 5.19858C9.37306 5.19858 10.4509 5.641 11.25 6.43001C11.343 6.52374 11.4536 6.59814 11.5755 6.6489C11.6973 6.69967 11.828 6.72581 11.96 6.72581C12.092 6.72581 12.2227 6.69967 12.3446 6.6489C12.4665 6.59814 12.5771 6.52374 12.67 6.43001C13.4692 5.641 14.547 5.19858 15.67 5.19858C16.7931 5.19858 17.8709 5.641 18.67 6.43001C19.4651 7.22116 19.9186 8.2922 19.9336 9.4137C19.9485 10.5352 19.5237 11.6179 18.75 12.43V12.46Z" fill="#666666"/>
</svg>
