<svg width="19" height="19" viewBox="0 0 19 19" fill="none" xmlns="http://www.w3.org/2000/svg">
<rect width="18" height="18" transform="translate(0.780762 0.0800781)" fill="white"/>
<rect width="18" height="18" transform="translate(0.780762 0.0800781)" fill="white"/>
<path d="M9.30523 1.5436C9.45491 1.08295 10.1066 1.08295 10.2563 1.5436L11.6891 5.95343C11.7561 6.15944 11.948 6.29893 12.1647 6.29893H16.8014C17.2858 6.29893 17.4872 6.91873 17.0953 7.20343L13.3441 9.92886C13.1689 10.0562 13.0955 10.2819 13.1625 10.4879L14.5953 14.8977C14.745 15.3584 14.2177 15.7414 13.8259 15.4567L10.0747 12.7313C9.89941 12.604 9.66211 12.604 9.48687 12.7313L5.73564 15.4567C5.34379 15.7414 4.81655 15.3584 4.96622 14.8977L6.39906 10.4879C6.466 10.2819 6.39267 10.0562 6.21743 9.92886L2.4662 7.20343C2.07435 6.91873 2.27573 6.29893 2.7601 6.29893H7.39686C7.61348 6.29893 7.80546 6.15945 7.87239 5.95343L9.30523 1.5436Z" fill="white" stroke="black" stroke-opacity="0.6" stroke-width="0.7" stroke-linejoin="round"/>
</svg>
