<svg width="25" height="25" viewBox="0 0 25 25" fill="none" xmlns="http://www.w3.org/2000/svg">
<path opacity="0.1" fill-rule="evenodd" clip-rule="evenodd" d="M0.5 12.2089C0.5 5.58145 5.87258 0.208862 12.5 0.208862C19.1274 0.208862 24.5 5.58145 24.5 12.2089C24.5 18.8363 19.1274 24.2089 12.5 24.2089C5.87258 24.2089 0.5 18.8363 0.5 12.2089Z" fill="white"/>
<path fill-rule="evenodd" clip-rule="evenodd" d="M18.9016 12.2001C18.9016 12.6329 18.8575 13.0651 18.771 13.4864C18.6866 13.8977 18.5616 14.3015 18.3978 14.6876C18.2378 15.0668 18.0394 15.4322 17.8075 15.7729C17.579 16.1115 17.3159 16.4292 17.0268 16.7188C16.7371 17.0071 16.4183 17.2696 16.0799 17.499C15.738 17.7293 15.3721 17.9274 14.9926 18.0882C14.6061 18.251 14.2013 18.3759 13.7904 18.4601C13.3685 18.5469 12.9347 18.5912 12.5013 18.5912C12.0675 18.5912 11.6337 18.5469 11.2125 18.4601C10.8009 18.3759 10.3962 18.251 10.0099 18.0882C9.63052 17.9274 9.26423 17.7293 8.92235 17.499C8.58389 17.2696 8.26513 17.0071 7.97605 16.7188C7.68667 16.4292 7.42351 16.1115 7.19476 15.7729C6.96412 15.4322 6.76534 15.0667 6.60472 14.6876C6.44094 14.3015 6.31564 13.8977 6.23095 13.4864C6.14533 13.0651 6.10156 12.6329 6.10156 12.2001C6.10156 11.7669 6.1453 11.3338 6.23097 10.9134C6.31567 10.5021 6.44097 10.0977 6.60475 9.71229C6.76537 9.33282 6.96414 8.96709 7.19478 8.6263C7.42354 8.28741 7.68669 7.97033 7.97607 7.68041C8.26515 7.39205 8.58392 7.13025 8.92237 6.9012C9.26426 6.66995 9.63054 6.47181 10.0099 6.31077C10.3962 6.14753 10.8009 6.02241 11.2125 5.93878C11.6338 5.85266 12.0675 5.80896 12.5013 5.80896C12.9347 5.80896 13.3685 5.85266 13.7904 5.93878C14.2014 6.02243 14.6061 6.14755 14.9927 6.31077C15.3721 6.47178 15.738 6.66995 16.0799 6.9012C16.4184 7.13025 16.7371 7.39205 17.0268 7.68041C17.3159 7.97033 17.5791 8.28741 17.8075 8.6263C18.0394 8.96709 18.2378 9.33285 18.3978 9.71229C18.5616 10.0977 18.6866 10.5021 18.771 10.9134C18.8575 11.3338 18.9016 11.7669 18.9016 12.2001ZM10.1693 7.26349C8.64509 7.9822 7.50754 9.38462 7.15283 11.0748C7.29691 11.076 9.57453 11.1047 12.1987 10.4085C11.2527 8.7302 10.2421 7.36057 10.1693 7.26349ZM12.6516 11.2489C9.83736 12.0902 7.13689 12.0297 7.04002 12.026C7.03844 12.0846 7.03564 12.1414 7.03564 12.2001C7.03564 13.6022 7.56535 14.8804 8.43602 15.8469C8.43414 15.8441 9.92987 13.1943 12.8794 12.2419C12.9506 12.2182 13.0231 12.197 13.095 12.1764C12.9578 11.8662 12.8081 11.5554 12.6516 11.2489ZM16.1108 8.1039C15.1486 7.25662 13.8851 6.74268 12.5013 6.74268C12.0572 6.74268 11.6262 6.79636 11.2134 6.89559C11.2952 7.00546 12.3219 8.36542 13.2566 10.0793C15.3189 9.30723 16.0974 8.12386 16.1108 8.1039ZM13.4676 13.0807C13.4554 13.0848 13.4432 13.0882 13.4313 13.0926C10.2065 14.2152 9.15343 16.4775 9.14204 16.5022C10.0699 17.2228 11.2337 17.6575 12.5013 17.6575C13.2582 17.6575 13.9792 17.5036 14.6351 17.225C14.5542 16.7481 14.2367 15.0767 13.4676 13.0807ZM15.5555 16.7263C16.7827 15.8993 17.6543 14.5862 17.8975 13.0651C17.785 13.0289 16.2558 12.5455 14.4916 12.8279C15.2086 14.7952 15.4998 16.3974 15.5555 16.7263ZM13.6773 10.8925C13.8041 11.1528 13.927 11.4177 14.0404 11.6839C14.0807 11.7794 14.1201 11.873 14.1586 11.9666C16.0361 11.7307 17.8859 12.1277 17.965 12.1439C17.9525 10.8501 17.489 9.66265 16.7221 8.73303C16.7118 8.74766 15.8352 10.0125 13.6773 10.8925Z" fill="white"/>
</svg>
