<svg width="21" height="19" viewBox="0 0 21 19" fill="none" xmlns="http://www.w3.org/2000/svg">
<path fill-rule="evenodd" clip-rule="evenodd" d="M15.439 0.208862C16.78 0.208862 18.07 0.738862 19.019 1.68986C19.969 2.63886 20.5 3.91886 20.5 5.25886V13.1589C20.5 15.9489 18.23 18.2089 15.439 18.2089H5.56C2.769 18.2089 0.5 15.9489 0.5 13.1589V5.25886C0.5 2.46886 2.759 0.208862 5.56 0.208862H15.439ZM17.0319 6.74895L17.1119 6.66895C17.3509 6.37895 17.3509 5.95895 17.1009 5.66895C16.9619 5.51995 16.7709 5.42895 16.5719 5.40895C16.3619 5.39795 16.1619 5.46895 16.0109 5.60895L11.5019 9.20895C10.9219 9.68995 10.0909 9.68995 9.50188 9.20895L5.00188 5.60895C4.69088 5.37895 4.26088 5.40895 4.00188 5.67895C3.73188 5.94895 3.70188 6.37895 3.93088 6.67895L4.06188 6.80895L8.61188 10.3589C9.17188 10.7989 9.85088 11.0389 10.5619 11.0389C11.2709 11.0389 11.9619 10.7989 12.5209 10.3589L17.0319 6.74895Z" fill="white"/>
</svg>
