<svg width="25" height="25" viewBox="0 0 25 25" fill="none" xmlns="http://www.w3.org/2000/svg">
<path opacity="0.1" fill-rule="evenodd" clip-rule="evenodd" d="M0.5 12.2089C0.5 5.58145 5.87258 0.208862 12.5 0.208862C19.1274 0.208862 24.5 5.58145 24.5 12.2089C24.5 18.8363 19.1274 24.2089 12.5 24.2089C5.87258 24.2089 0.5 18.8363 0.5 12.2089Z" fill="white"/>
<path fill-rule="evenodd" clip-rule="evenodd" d="M12.5022 5.80896C10.764 5.80896 10.5459 5.81656 9.8632 5.84763C9.18186 5.87883 8.71679 5.9867 8.30985 6.14496C7.88891 6.30843 7.53184 6.5271 7.17611 6.88297C6.8201 7.23871 6.60143 7.59578 6.43743 8.01658C6.27876 8.42365 6.17076 8.88886 6.1401 9.56993C6.10956 10.2526 6.10156 10.4709 6.10156 12.209C6.10156 13.9472 6.1093 14.1646 6.14023 14.8473C6.17156 15.5287 6.27943 15.9937 6.43757 16.4007C6.60117 16.8216 6.81984 17.1787 7.17571 17.5344C7.53131 17.8904 7.88838 18.1096 8.30905 18.2731C8.71626 18.4314 9.18146 18.5392 9.86267 18.5704C10.5453 18.6015 10.7633 18.6091 12.5014 18.6091C14.2396 18.6091 14.4571 18.6015 15.1398 18.5704C15.8211 18.5392 16.2867 18.4314 16.6939 18.2731C17.1147 18.1096 17.4713 17.8904 17.8269 17.5344C18.1829 17.1787 18.4016 16.8216 18.5656 16.4008C18.7229 15.9937 18.8309 15.5285 18.8629 14.8475C18.8936 14.1648 18.9016 13.9472 18.9016 12.209C18.9016 10.4709 18.8936 10.2527 18.8629 9.57007C18.8309 8.88873 18.7229 8.42365 18.5656 8.01672C18.4016 7.59578 18.1829 7.23871 17.8269 6.88297C17.4709 6.52697 17.1149 6.3083 16.6935 6.14496C16.2855 5.9867 15.8202 5.87883 15.1389 5.84763C14.4562 5.81656 14.2388 5.80896 12.5002 5.80896H12.5022ZM11.928 6.96229C12.0984 6.96202 12.2885 6.96229 12.5021 6.96229C14.211 6.96229 14.4135 6.96842 15.0883 6.99909C15.7123 7.02762 16.051 7.13189 16.2766 7.21949C16.5752 7.33549 16.7882 7.47416 17.012 7.69816C17.2361 7.92216 17.3747 8.1355 17.491 8.43417C17.5786 8.65951 17.683 8.99818 17.7114 9.62218C17.7421 10.2969 17.7487 10.4995 17.7487 12.2075C17.7487 13.9156 17.7421 14.1182 17.7114 14.7929C17.6829 15.4169 17.5786 15.7556 17.491 15.9809C17.375 16.2796 17.2361 16.4923 17.012 16.7161C16.788 16.9401 16.5754 17.0788 16.2766 17.1948C16.0512 17.2828 15.7123 17.3868 15.0883 17.4153C14.4136 17.446 14.211 17.4527 12.5021 17.4527C10.7932 17.4527 10.5906 17.446 9.91597 17.4153C9.29197 17.3865 8.9533 17.2823 8.72756 17.1947C8.42889 17.0787 8.21556 16.94 7.99155 16.716C7.76755 16.492 7.62888 16.2792 7.51262 15.9804C7.42502 15.755 7.32061 15.4164 7.29221 14.7924C7.26155 14.1177 7.25541 13.915 7.25541 12.2059C7.25541 10.4969 7.26155 10.2953 7.29221 9.62058C7.32075 8.99658 7.42502 8.65791 7.51262 8.4323C7.62862 8.13363 7.76755 7.9203 7.99155 7.69629C8.21556 7.47229 8.42889 7.33362 8.72756 7.21736C8.95316 7.12936 9.29197 7.02535 9.91597 6.99669C10.5064 6.97002 10.7352 6.96202 11.928 6.96069V6.96229ZM15.9184 8.02497C15.4944 8.02497 15.1504 8.36857 15.1504 8.79271C15.1504 9.21671 15.4944 9.56072 15.9184 9.56072C16.3424 9.56072 16.6864 9.21671 16.6864 8.79271C16.6864 8.3687 16.3424 8.02497 15.9184 8.02497ZM12.5022 8.92231C10.6871 8.92231 9.21547 10.3939 9.21547 12.209C9.21547 14.0241 10.6871 15.495 12.5022 15.495C14.3173 15.495 15.7883 14.0241 15.7883 12.209C15.7883 10.3939 14.3173 8.92231 12.5022 8.92231ZM12.5021 10.0757C13.6803 10.0757 14.6355 11.0307 14.6355 12.209C14.6355 13.3872 13.6803 14.3424 12.5021 14.3424C11.3239 14.3424 10.3688 13.3872 10.3688 12.209C10.3688 11.0307 11.3239 10.0757 12.5021 10.0757Z" fill="white"/>
</svg>
