<svg width="25" height="25" viewBox="0 0 25 25" fill="none" xmlns="http://www.w3.org/2000/svg">
<path opacity="0.1" fill-rule="evenodd" clip-rule="evenodd" d="M0.5 12.2089C0.5 5.58145 5.87258 0.208862 12.5 0.208862C19.1274 0.208862 24.5 5.58145 24.5 12.2089C24.5 18.8363 19.1274 24.2089 12.5 24.2089C5.87258 24.2089 0.5 18.8363 0.5 12.2089Z" fill="white"/>
<path fill-rule="evenodd" clip-rule="evenodd" d="M12.1406 9.96256L12.1658 10.3778L11.7461 10.3269C10.2184 10.132 8.88383 9.47107 7.75067 8.36097L7.19668 7.81016L7.05399 8.21692C6.75181 9.12364 6.94487 10.0812 7.5744 10.7252C7.91015 11.0811 7.83461 11.132 7.25544 10.9201C7.05399 10.8523 6.87772 10.8015 6.86093 10.8269C6.80218 10.8862 7.00363 11.6574 7.16311 11.9624C7.38134 12.3861 7.82621 12.8014 8.31305 13.0471L8.72434 13.242L8.23751 13.2505C7.76746 13.2505 7.75067 13.259 7.80103 13.4369C7.96891 13.9877 8.63201 14.5724 9.37066 14.8267L9.89108 15.0046L9.43781 15.2758C8.76631 15.6656 7.9773 15.8859 7.18829 15.9029C6.81057 15.9113 6.5 15.9452 6.5 15.9706C6.5 16.0554 7.52404 16.5299 8.11999 16.7164C9.90786 17.2672 12.0315 17.0299 13.6263 16.0893C14.7595 15.4198 15.8926 14.0894 16.4214 12.8014C16.7068 12.115 16.9922 10.8608 16.9922 10.2592C16.9922 9.86935 17.0174 9.81851 17.4874 9.35243C17.7644 9.08127 18.0246 8.78467 18.075 8.69993C18.1589 8.53893 18.1505 8.53893 17.7224 8.68299C17.009 8.93721 16.9083 8.90331 17.2608 8.52198C17.521 8.25081 17.8316 7.75932 17.8316 7.61526C17.8316 7.58984 17.7057 7.63221 17.563 7.70847C17.4119 7.79321 17.0761 7.92032 16.8243 7.99659L16.3711 8.14065L15.9598 7.86101C15.7331 7.70847 15.4142 7.53899 15.2463 7.48815C14.8182 7.36951 14.1635 7.38646 13.7774 7.52205C12.7282 7.90338 12.0651 8.88636 12.1406 9.96256Z" fill="white"/>
</svg>
