<svg width="25" height="25" viewBox="0 0 25 25" fill="none" xmlns="http://www.w3.org/2000/svg">
<path opacity="0.1" fill-rule="evenodd" clip-rule="evenodd" d="M0.5 12.2089C0.5 5.58145 5.87258 0.208862 12.5 0.208862C19.1274 0.208862 24.5 5.58145 24.5 12.2089C24.5 18.8363 19.1274 24.2089 12.5 24.2089C5.87258 24.2089 0.5 18.8363 0.5 12.2089Z" fill="white"/>
<path fill-rule="evenodd" clip-rule="evenodd" d="M17.5024 8.08362C18.0531 8.23476 18.4869 8.68007 18.6341 9.24557C18.9016 10.2705 18.9016 12.409 18.9016 12.409C18.9016 12.409 18.9016 14.5474 18.6341 15.5724C18.4869 16.1379 18.0531 16.5832 17.5024 16.7344C16.5043 17.009 12.5016 17.009 12.5016 17.009C12.5016 17.009 8.49887 17.009 7.50069 16.7344C6.94993 16.5832 6.51618 16.1379 6.36898 15.5724C6.10156 14.5474 6.10156 12.409 6.10156 12.409C6.10156 12.409 6.10156 10.2705 6.36898 9.24557C6.51618 8.68007 6.94993 8.23476 7.50069 8.08362C8.49887 7.80896 12.5016 7.80896 12.5016 7.80896C12.5016 7.80896 16.5043 7.80896 17.5024 8.08362ZM11.3016 10.6089V14.6089L14.5016 12.609L11.3016 10.6089Z" fill="white"/>
</svg>
